# xmcd
#
# Track frame offsets: 
#        150
#        21740
#        40608
#        67568
#        93045
#        126433
#        152264
#        180210
#        204304
#        231285
#        245805
#        272283
#        295577
#        324840
#
# Disc length: 4655 seconds
#
# Revision: 1
# Processed by: cddbd v1.5.2PL0 Copyright (c) Steve Scherf et al.
# Submitted via: ExactAudioCopyFreeDBPlugin 1.0
#
DISCID=a8122d0e
DTITLE=Roberta Gambarini - Easy To Love
DYEAR=2006
DGENRE=Jazz
TTITLE0=Easy To Love
TTITLE1=Only Trust Your Heart
TTITLE2=Lover Man
TTITLE3=On The Sunny Side Of The St
TTITLE4=Porgy I's Your Woman Now
TTITLE5=Lover Come Back To Me
TTITLE6=The Two Lonely People
TTITLE7=Centerpiece
TTITLE8=Guess I'll Hang My Tears #8
TTITLE9=No More Blues
TTITLE10=Smokes Gets In Your Eyes
TTITLE11=Too Late Now
TTITLE12=Multi-Colored Blue
TTITLE13=Monk's Prayer - Looking Bac
EXTD=YEAR: 2006
EXTT0=
EXTT1=
EXTT2=
EXTT3=
EXTT4=
EXTT5=
EXTT6=
EXTT7=
EXTT8=
EXTT9=
EXTT10=
EXTT11=
EXTT12=
EXTT13=
PLAYORDER=
